<svg width="52" height="52" viewBox="0 0 52 52" fill="none" xmlns="http://www.w3.org/2000/svg">
<g clip-path="url(#clip0_57_98)">
<path d="M44.3412 7.55667C39.4744 2.68652 33.003 0.00297139 26.1082 0C11.9004 0 0.338057 11.5586 0.332369 25.7658C0.330713 30.3072 1.51732 34.7403 3.77273 38.6479L0.115967 52L13.78 48.4171C17.5447 50.4702 21.7836 51.5521 26.0971 51.5539H26.1081H26.1082C40.3137 51.5539 51.8778 39.9932 51.8838 25.7867C51.8862 18.9012 49.2074 12.4272 44.3412 7.55667ZM26.1082 47.2019H26.0998C22.2549 47.1999 18.4845 46.1676 15.1958 44.2161L14.4131 43.7522L6.30456 45.8781L8.46943 37.9753L7.9595 37.165C5.8148 33.7549 4.68257 29.814 4.68418 25.7675C4.68889 13.9589 14.299 4.35211 26.1163 4.35211C31.8389 4.35449 37.2174 6.58507 41.2625 10.633C45.3074 14.6809 47.5333 20.062 47.5316 25.7849C47.5266 37.5938 37.9161 47.2019 26.1082 47.2019Z" fill="#E0E0E0"/>
<path d="M1.29907 50.5186L4.7888 37.7764C2.63586 34.0472 1.50367 29.8164 1.50503 25.4833C1.51068 11.9253 12.5449 0.89502 26.1026 0.89502C32.6828 0.897991 38.8587 3.45882 43.5021 8.10662C48.1466 12.7544 50.7028 18.9323 50.7001 25.5025C50.6944 39.0608 39.6595 50.0921 26.1036 50.0921C26.1026 50.0921 26.1042 50.0921 26.1036 50.0921H26.0926C21.9761 50.0907 17.9312 49.0574 14.3387 47.0994L1.29907 50.5186Z" fill="url(#paint0_linear_57_98)"/>
<path fill-rule="evenodd" clip-rule="evenodd" d="M19.7387 14.8269C19.2619 13.7666 18.7598 13.7454 18.3061 13.7269C17.935 13.7109 17.5102 13.7119 17.0861 13.7119C16.6616 13.7119 15.9718 13.8714 15.3885 14.5085C14.8048 15.1456 13.1599 16.6857 13.1599 19.8179C13.1599 22.9504 15.4415 25.9772 15.7595 26.4024C16.0779 26.8268 20.1639 33.4601 26.635 36.012C32.013 38.1327 33.1074 37.7109 34.2747 37.6047C35.442 37.4986 38.0413 36.065 38.5719 34.5783C39.1025 33.0919 39.1025 31.8178 38.9433 31.5515C38.7842 31.2862 38.3597 31.127 37.7229 30.8087C37.0862 30.4903 33.9563 28.9499 33.3727 28.7377C32.789 28.5254 32.3645 28.4193 31.94 29.0567C31.5155 29.6934 30.2961 31.127 29.9247 31.5515C29.5533 31.977 29.1819 32.03 28.5451 31.7117C27.9084 31.3923 25.8579 30.7208 23.4255 28.5519C21.5329 26.8646 20.2551 24.7806 19.8837 24.1432C19.5122 23.5065 19.8438 23.1616 20.1632 22.8442C20.4491 22.559 20.8 22.1011 21.1183 21.7293C21.436 21.3575 21.5421 21.0922 21.7544 20.6677C21.9666 20.2426 21.8605 19.8709 21.7013 19.5525C21.5421 19.2341 20.3048 16.0857 19.7387 14.8269Z" fill="white"/>
<path d="M44.1306 7.47483C39.3197 2.66058 32.9226 0.00789665 26.107 0.00488281C12.0622 0.00488281 0.632629 11.4308 0.626984 25.4749C0.625328 29.9642 1.79831 34.3463 4.02782 38.2091L0.413086 51.4079L13.9203 47.8661C17.6418 49.8957 21.832 50.9652 26.096 50.9668H26.1069H26.107C40.1494 50.9668 51.5807 39.5389 51.5867 25.4955C51.589 18.6891 48.9409 12.2894 44.1306 7.47483ZM26.107 46.665H26.0987C22.2979 46.663 18.5707 45.6426 15.3198 43.7135L14.5461 43.2549L6.53063 45.3564L8.67062 37.5442L8.16655 36.7434C6.04646 33.3724 4.92722 29.4767 4.92888 25.4766C4.9335 13.8036 14.4333 4.30712 26.115 4.30712C31.7719 4.30945 37.0886 6.51443 41.0873 10.5159C45.0858 14.5173 47.2861 19.8366 47.2845 25.4939C47.2795 37.1672 37.7793 46.665 26.107 46.665Z" fill="white"/>
</g>
<defs>
<linearGradient id="paint0_linear_57_98" x1="25.9996" y1="50.5186" x2="25.9996" y2="0.895102" gradientUnits="userSpaceOnUse">
<stop stop-color="#20B038"/>
<stop offset="1" stop-color="#60D66A"/>
</linearGradient>
<clipPath id="clip0_57_98">
<rect width="52" height="52" fill="white"/>
</clipPath>
</defs>
</svg>
